HIERARCHY
ROOT Hips
{
	OFFSET -3.958830 18.904000 13.208200
	CHANNELS 6 Xposition Yposition Zposition Zrotation Yrotation Xrotation 
	JOINT LHipJoint
	{
		OFFSET 0.000000 0.000000 0.000000
		CHANNELS 3 Zrotation Yrotation Xrotation
		JOINT LeftUpLeg
		{
			OFFSET 1.800000 -1.400000 0.085000
			CHANNELS 3 Zrotation Yrotation Xrotation
			JOINT LeftLeg
			{
				OFFSET 2.215000 -6.000000 0.000000
				CHANNELS 3 Zrotation Yrotation Xrotation
				JOINT LeftFoot
				{
					OFFSET 2.500000 -6.900000 0.000000
					CHANNELS 3 Zrotation Yrotation Xrotation
					JOINT LeftToeBase
					{
						OFFSET 0.200000 -0.500000 1.950000
						CHANNELS 3 Zrotation Yrotation Xrotation
						End Site
						{
							OFFSET 0.000000 0.000000 0.000000
						}
					}
				}
			}
		}
	}
	JOINT RHipJoint
	{
		OFFSET 0.000000 0.000000 0.000000
		CHANNELS 3 Zrotation Yrotation Xrotation
		JOINT RightUpLeg
		{
			OFFSET -1.800000 -1.400000 0.085000
			CHANNELS 3 Zrotation Yrotation Xrotation
			JOINT RightLeg
			{
				OFFSET -2.215000 -6.000000 0.000000
				CHANNELS 3 Zrotation Yrotation Xrotation
				JOINT RightFoot
				{
					OFFSET -2.500000 -6.900000 0.000000
					CHANNELS 3 Zrotation Yrotation Xrotation
					JOINT RightToeBase
					{
						OFFSET -0.200000 -0.500000 1.950000
						CHANNELS 3 Zrotation Yrotation Xrotation
						End Site
						{
							OFFSET 0.000000 0.000000 0.000000
						}
					}
				}
			}
		}
	}
	JOINT LowerBack
	{
		OFFSET 0.000000 0.000000 0.000000
		CHANNELS 3 Zrotation Yrotation Xrotation
		JOINT Spine
		{
			OFFSET -0.087000 1.940000 -0.288900
			CHANNELS 3 Zrotation Yrotation Xrotation
			JOINT Spine1
			{
				OFFSET 0.000000 1.950000 0.060000
				CHANNELS 3 Zrotation Yrotation Xrotation
				JOINT Neck
				{
					OFFSET 0.000000 0.000000 0.000000
					CHANNELS 3 Zrotation Yrotation Xrotation
					JOINT Neck1
					{
						OFFSET 0.000000 1.600000 0.340000
						CHANNELS 3 Zrotation Yrotation Xrotation
						JOINT Head
						{
							OFFSET 0.000000 1.667000 -0.240000
							CHANNELS 3 Zrotation Yrotation Xrotation
							End Site
							{
								OFFSET 0.000000 0.000000 0.000000
							}
						}
					}
				}
				JOINT LeftShoulder
				{
					OFFSET 0.000000 0.000000 0.000000
					CHANNELS 3 Zrotation Yrotation Xrotation
					JOINT LeftArm
					{
						OFFSET 2.700000 1.550000 -0.730000
						CHANNELS 3 Zrotation Yrotation Xrotation
						JOINT LeftForeArm
						{
							OFFSET 5.450000 0.000000 0.000000
							CHANNELS 3 Zrotation Yrotation Xrotation
							JOINT LeftHand
							{
								OFFSET 3.450000 0.000000 0.000000
								CHANNELS 3 Zrotation Yrotation Xrotation
								JOINT LeftHandIndex1
								{
									OFFSET 0.750000 0.000000 0.000000
									CHANNELS 3 Zrotation Yrotation Xrotation
									End Site
									{
										OFFSET 0.000000 0.000000 0.000000
									}
								}
							}
						}
					}
				}
				JOINT RightShoulder
				{
					OFFSET 0.000000 0.000000 0.000000
					CHANNELS 3 Zrotation Yrotation Xrotation
					JOINT RightArm
					{
						OFFSET -2.700000 1.550000 -0.730000
						CHANNELS 3 Zrotation Yrotation Xrotation
						JOINT RightForeArm
						{
							OFFSET -5.450000 0.000000 0.000000
							CHANNELS 3 Zrotation Yrotation Xrotation
							JOINT RightHand
							{
								OFFSET -3.450000 0.000000 0.000000
								CHANNELS 3 Zrotation Yrotation Xrotation
								JOINT RightHandIndex1
								{
									OFFSET -0.750000 0.000000 0.000000
									CHANNELS 3 Zrotation Yrotation Xrotation
									End Site
									{
										OFFSET 0.000000 0.000000 0.000000
									}
								}
							}
						}
					}
				}
			}
		}
	}
}
MOTION
Frames: 9
Frame Time: 0.016667
-0.125800 16.472290 -0.493480 -5.543223 -10.784243 -3.941085 -16.048460 14.520423 3.895315 0.938572 0.946194 -3.057162 -16.793273 6.198457 0.935247 0.357498 4.876321 2.832718 -0.320080 -0.137360 -0.084730 17.360619 -9.151190 2.594879 -14.413824 -0.460278 -22.706482 6.786435 -3.557946 4.078083 0.020910 -2.346518 3.193102 -0.241690 0.183830 0.300860 -0.923933 -6.613323 -8.625337 10.156736 -5.007237 27.490976 2.751872 -1.631401 7.994762 11.924520 8.149695 -16.132147 12.093140 -3.767851 33.937406 -15.784560 10.358020 -7.708750 -10.667307 -21.471979 10.212136 -6.854235 -13.144479 3.551041 -176.682287 -57.183417 168.115630 -3.946398 3.522984 0.136450 0.183250 0.179700 -0.179130 -13.357032 16.965123 10.729400 -23.871546 -7.134143 -6.556539 -21.892917 -12.093054 0.638744 3.480407 -1.062353 -0.022230 -0.055370 0.256580 0.098390 
-0.106840 16.429080 -0.492000 -5.335413 -10.353909 -3.173912 -16.060680 14.519813 3.883386 0.458345 0.708115 -4.155637 -17.021750 6.292164 1.774234 0.306072 4.815178 2.834505 -0.303640 -0.125080 -0.051600 17.350091 -9.121675 2.629498 -14.168651 -0.251191 -23.986928 6.938200 -3.621073 4.722872 0.012638 -2.271926 3.201049 -0.235950 0.151020 0.311190 -0.894535 -6.634352 -8.627046 10.073717 -4.617883 27.402170 3.931259 -1.257857 6.793602 11.716693 8.710887 -15.983306 13.184218 -4.316280 33.659896 -17.103410 10.624370 -9.279680 -10.694147 -20.923370 9.838162 -6.892623 -12.564212 3.662016 -170.102933 -58.095128 157.015336 -3.905569 3.523548 0.176140 0.169020 0.211350 -0.185830 -12.901194 16.254759 10.674017 -22.840684 -6.983560 -6.315069 -22.653445 -11.087883 0.626510 3.411960 -1.090651 -0.027470 -0.059870 0.247250 0.076390 
-0.078790 16.359990 -0.485650 -4.767007 -9.039109 -2.001760 -16.140585 14.605561 3.895182 -0.320706 0.284521 -5.817640 -17.487357 6.495490 2.967070 0.284904 4.834204 2.830512 -0.330400 -0.199660 -0.022140 17.282765 -8.965153 2.663852 -14.009178 0.062112 -25.905457 7.328432 -3.741721 5.985091 0.064901 -2.235212 3.173817 -0.258710 0.168420 0.334640 -0.707353 -7.025151 -8.661218 9.522217 -4.395101 26.883395 6.263813 -1.555062 6.214186 11.865540 7.793133 -16.041861 11.506186 -3.892457 32.177120 -18.349630 11.100880 -7.090700 -10.298366 -19.669930 9.554456 -7.309197 -10.237602 3.420128 -159.236109 -58.713691 138.022569 -3.919554 3.610621 0.135890 0.207430 0.162820 -0.215990 -13.406525 15.883695 11.182232 -20.768641 -7.536576 -5.802125 -23.253413 -8.811720 0.302252 3.371860 -1.182938 -0.037750 -0.104510 0.262390 0.054840 
-0.029840 16.299070 -0.499200 -4.337740 -8.338164 -1.286111 -16.144724 14.614817 3.900526 -1.162924 0.019366 -7.042673 -17.719750 6.676728 3.990847 0.286488 4.805705 2.870180 -0.387420 -0.270080 -0.055990 17.280407 -8.900306 2.753964 -13.600682 0.443085 -27.906571 8.046085 -3.987047 7.556091 0.115471 -2.228607 3.198514 -0.290580 0.217930 0.308500 -0.705557 -7.101142 -8.703775 10.143987 -4.243100 26.994638 7.803139 -1.417431 5.599676 11.476417 7.158905 -16.552992 10.442398 -4.019472 32.039812 -18.578040 10.696480 -4.433600 -9.844360 -19.251994 10.015320 -7.567177 -6.393365 2.677593 -146.701052 -59.043875 117.145383 -3.926721 3.611484 0.106190 0.239820 0.118120 -0.209050 -13.112720 16.252238 11.506217 -19.468918 -7.410269 -6.285997 -23.220226 -10.607540 0.529336 3.423934 -1.180862 -0.069450 -0.082770 0.270920 0.065640 
0.034900 16.252070 -0.522620 -3.812763 -5.819897 -1.527398 -16.173308 14.760249 3.916443 -2.108018 -0.225395 -7.716539 -17.572198 7.050259 6.041471 0.306034 4.822515 2.878306 -0.403240 -0.272990 -0.073320 17.236923 -8.832928 2.775190 -13.956528 0.345722 -28.296203 9.167095 -4.377321 8.819368 0.117537 -2.336953 3.180506 -0.292470 0.230740 0.280250 -0.650786 -7.493213 -8.743661 11.113946 -4.889254 28.041476 8.611906 -1.867474 5.001267 11.274679 6.631915 -16.977188 9.341453 -4.599794 32.281615 -18.748050 9.579730 -3.446430 -9.501138 -19.045474 10.138050 -7.023437 -3.541642 1.600695 -131.341542 -59.303190 94.745725 -3.902206 3.615675 0.090400 0.242000 0.112870 -0.191980 -13.163135 16.579218 12.089195 -16.790426 -7.385760 -6.553833 -23.384821 -10.903547 0.563909 3.448636 -1.178924 -0.079230 -0.053510 0.255740 0.084340 
0.110010 16.203500 -0.554350 -3.840109 -3.423021 -1.100232 -16.115019 14.753949 3.912140 -2.736638 -0.762700 -9.244985 -17.594390 7.492178 8.682052 0.334343 4.829765 2.870667 -0.393940 -0.243350 -0.099580 17.277642 -8.811287 2.907610 -13.637888 0.556272 -29.769268 10.607950 -4.858770 10.391684 0.116761 -2.463029 3.143707 -0.282660 0.239180 0.265180 -0.825585 -7.497709 -8.765546 13.748513 -5.679260 28.484148 9.105105 -1.765437 4.102084 10.492523 6.115803 -16.981255 8.326623 -5.715849 31.848531 -17.644190 7.437660 -2.423510 -9.190414 -18.946453 9.697180 -7.019479 -3.831726 1.217253 -115.990531 -59.011669 76.153299 -3.888842 3.643258 0.048250 0.238060 0.102110 -0.169310 -11.986774 16.785220 12.473184 -15.116034 -9.100365 -6.431843 -24.125700 -10.580267 0.600044 3.438687 -1.224667 -0.055460 -0.047550 0.236940 0.119820 
0.183480 16.153340 -0.589240 -3.835716 -1.987879 -0.657235 -16.029773 14.648042 3.894943 -3.515631 -1.291756 -10.702524 -17.452520 7.779190 10.956109 0.281529 4.812356 2.824588 -0.333880 -0.167650 -0.055030 17.370471 -8.786032 3.057874 -12.990691 1.010239 -31.978252 11.864947 -5.597611 13.014549 0.045258 -2.612700 3.038142 -0.250160 0.174980 0.278090 -1.092979 -7.317038 -8.731364 16.606649 -6.488847 29.418112 8.988255 -1.598331 3.295488 9.757619 5.913921 -16.364185 8.135814 -6.232841 30.992179 -17.422160 6.490780 -6.204230 -8.424095 -17.500396 8.918878 -7.505874 -3.525056 0.860756 -104.522290 -57.562667 63.137339 -3.833613 3.661170 0.106450 0.179710 0.164810 -0.184660 -11.416126 15.397279 12.073680 -13.958303 -8.736448 -6.072068 -23.032399 -10.612761 0.656365 3.406680 -1.173548 -0.029790 -0.041490 0.232580 0.104540 
0.249470 16.109770 -0.634070 -3.058939 -0.921760 -0.457796 -16.015239 14.595240 3.908274 -5.086788 -1.693947 -11.612219 -16.935012 7.928483 12.718153 0.289181 4.775458 2.832620 -0.329030 -0.173660 -0.035080 17.406092 -8.679639 3.196246 -12.693445 1.323343 -34.017998 12.979463 -6.352375 15.543924 0.008674 -2.843338 2.942396 -0.264220 0.147460 0.264740 -1.177771 -7.381977 -8.751512 17.902922 -6.909155 30.844733 9.246473 -1.165410 2.490958 9.075564 5.578785 -16.411844 7.497313 -7.186651 30.812361 -17.316100 5.292420 -6.490420 -8.511288 -17.067643 8.644486 -6.729012 -1.871565 0.230814 -95.071039 -55.519985 53.222100 -3.753970 3.677255 0.121710 0.146160 0.179930 -0.190480 -10.059944 15.355975 12.400187 -13.269870 -10.208714 -5.414866 -22.050377 -9.365558 0.553866 3.377477 -1.132558 -0.022870 -0.038730 0.221240 0.102180 
0.320970 16.073240 -0.687810 -2.539892 -0.378888 -1.002447 -16.001742 14.572935 3.903965 -6.405691 -1.751637 -11.548650 -16.348485 7.943825 13.627881 0.228495 4.764299 2.842545 -0.290630 -0.126320 -0.022920 17.452310 -8.569019 3.271688 -11.925997 1.783594 -35.244973 13.944838 -7.153871 18.399082 -0.049314 -3.139293 2.837005 -0.214350 0.149520 0.221990 -1.274634 -7.511466 -8.706284 19.681901 -7.461013 33.341148 9.030460 -0.932566 2.444250 8.523200 4.687666 -15.939099 6.083358 -6.868664 29.819526 -15.594610 4.313240 -8.997900 -7.799227 -16.062607 7.885535 -5.671711 -0.736982 -0.672667 -85.541620 -53.220941 43.994502 -3.659315 3.635488 0.178710 0.111230 0.189930 -0.173570 -9.641397 14.990871 12.380552 -11.808323 -9.742072 -5.570729 -20.402162 -11.068288 0.683764 3.403128 -1.061777 -0.066340 0.029120 0.209440 0.091760 
